<?xml version="1.0" encoding="utf-8"?><!-- Uploaded to: SVG Repo, www.svgrepo.com, Generator: SVG Repo Mixer Tools -->
<svg width="800px" height="800px" viewBox="0 0 24 24" fill="none" xmlns="http://www.w3.org/2000/svg">
<path fill-rule="evenodd" clip-rule="evenodd" d="M23 22C23 22.5523 22.5523 23 22 23H2C1.44772 23 1 22.5523 1 22C1 21.4477 1.44772 21 2 21H22C22.5523 21 23 21.4477 23 22Z" fill="#0F0F0F"/>
<path fill-rule="evenodd" clip-rule="evenodd" d="M10.6901 1.31192C11.4419 0.660428 12.5581 0.66043 13.3099 1.31193L18.1291 5.48863C19.5282 6.70117 18.6707 9.00001 16.8193 9.00001H15V17C15 18.1046 14.1046 19 13 19H11C9.89543 19 9 18.1046 9 17V9.00001H7.18073C5.32932 9.00001 4.47178 6.70117 5.87086 5.48863L10.6901 1.31192ZM12.6549 3.39091C12.2791 3.06516 11.7209 3.06516 11.3451 3.39091L7.18073 7.00001L9.5 7.00001C10.3284 7.00001 11 7.67158 11 8.50001V17H13V8.50001C13 7.67158 13.6716 7.00001 14.5 7.00001H16.8193L12.6549 3.39091Z" fill="#0F0F0F"/>
</svg>